<?xml version="1.0" encoding="UTF-8" standalone="no"?>
<!DOCTYPE svg PUBLIC "-//W3C//DTD SVG 1.1//EN" "http://www.w3.org/Graphics/SVG/1.1/DTD/svg11.dtd">
<svg version="1.1" xmlns="http://www.w3.org/2000/svg" xmlns:xlink="http://www.w3.org/1999/xlink" preserveAspectRatio="xMidYMid meet" viewBox="0 0 240 195" width="240" height="195"><defs><path d="M108 58.2C92.78 34.6 83.26 19.84 79.46 13.94C74.3 5.94 64.86 1.77 55.47 3.34C45.69 4.98 58.56 2.83 55.47 3.34C29.46 7.7 13.09 33.79 20.48 59.1C21.58 62.88 17.7 49.59 20.48 59.1C23.77 70.39 33.93 78.3 45.68 78.73C48.39 78.83 55.16 79.08 65.99 79.48" id="cCaLMRAKe"></path><path d="M130.7 58.53C145.92 34.93 155.43 20.18 159.24 14.28C164.4 6.27 173.83 2.1 183.23 3.68C193 5.32 180.13 3.16 183.23 3.68C209.24 8.03 225.61 34.12 218.22 59.43C217.12 63.22 221 49.92 218.22 59.43C214.93 70.72 204.76 78.61 193.02 79.01C189.91 79.12 182.14 79.38 169.71 79.81" id="eh9y3U6vD"></path><path d="M94.65 94.63L94.65 79.48" id="a1wR7UXz6p"></path><path d="M141.48 94.97L141.48 79.81" id="b9EDSMZJZ"></path><path d="M124.65 164.3C147.42 131.93 161.65 111.7 167.34 103.61C176.25 90.94 171.74 73.3 157.83 66.46C150.41 62.81 163.13 69.06 157.83 66.46C134.22 54.86 106.79 53.8 82.35 63.55C73.17 67.21 90.03 60.49 82.35 63.55C60.99 72.07 55.75 99.92 72.56 115.62C79.5 122.11 96.87 138.34 124.65 164.3Z" id="a17WgOHL43"></path><path d="M138.32 145.63L124.65 164.3L104.65 145.63L138.32 145.63Z" id="b7ld7wdfK"></path><path d="M0 128.97L113.33 147.3" id="a1bljLEFMr"></path><path d="M2.26 160.63L115.93 149.97" id="aze9E1kj3"></path><path d="M8 190.3L119.33 151.97" id="e1U8rfJRVI"></path><path d="M238 129.97L124.67 148.3" id="d1nGOCcfiZ"></path><path d="M239.59 162.63L125.93 151.97" id="f2v10IcasH"></path><path d="M236 192.63L124.67 154.3" id="b2kZtcgIAZ"></path></defs><g><g><g><g><use xlink:href="#cCaLMRAKe" opacity="1" fill-opacity="0" stroke="#ffffff" stroke-width="4" stroke-opacity="1"></use></g></g><g><g><use xlink:href="#eh9y3U6vD" opacity="1" fill-opacity="0" stroke="#ffffff" stroke-width="4" stroke-opacity="1"></use></g></g><g><g><use xlink:href="#a1wR7UXz6p" opacity="1" fill-opacity="0" stroke="#ffffff" stroke-width="2" stroke-opacity="1"></use></g></g><g><g><use xlink:href="#b9EDSMZJZ" opacity="1" fill-opacity="0" stroke="#ffffff" stroke-width="2" stroke-opacity="1"></use></g></g><g><g><use xlink:href="#a17WgOHL43" opacity="1" fill-opacity="0" stroke="#ffffff" stroke-width="4" stroke-opacity="1"></use></g></g><g><use xlink:href="#b7ld7wdfK" opacity="1" fill="#ffffff" fill-opacity="1"></use><g><use xlink:href="#b7ld7wdfK" opacity="1" fill-opacity="0" stroke="#ffffff" stroke-width="2" stroke-opacity="1"></use></g></g><g><g><use xlink:href="#a1bljLEFMr" opacity="1" fill-opacity="0" stroke="#ffffff" stroke-width="4" stroke-opacity="1"></use></g></g><g><g><use xlink:href="#aze9E1kj3" opacity="1" fill-opacity="0" stroke="#ffffff" stroke-width="4" stroke-opacity="1"></use></g></g><g><g><use xlink:href="#e1U8rfJRVI" opacity="1" fill-opacity="0" stroke="#ffffff" stroke-width="4" stroke-opacity="1"></use></g></g><g><g><use xlink:href="#d1nGOCcfiZ" opacity="1" fill-opacity="0" stroke="#ffffff" stroke-width="4" stroke-opacity="1"></use></g></g><g><g><use xlink:href="#f2v10IcasH" opacity="1" fill-opacity="0" stroke="#ffffff" stroke-width="4" stroke-opacity="1"></use></g></g><g><g><use xlink:href="#b2kZtcgIAZ" opacity="1" fill-opacity="0" stroke="#ffffff" stroke-width="4" stroke-opacity="1"></use></g></g></g></g></svg>
